<?xml version="1.0" encoding="UTF-8" standalone="no" ?>
<!DOCTYPE svg PUBLIC "-//W3C//DTD SVG 1.1//EN" "http://www.w3.org/Graphics/SVG/1.1/DTD/svg11.dtd">
<svg xmlns="http://www.w3.org/2000/svg" xmlns:xlink="http://www.w3.org/1999/xlink" version="1.1" width="840" height="840" viewBox="0 0 840 840" xml:space="preserve">
<style type="text/css">
	.bbg {
		fill: var(--primary, #1d9bf0);
	}

	.sbg {
		fill: var(--secondary, #7bcbf3);
	}
</style>
<rect class="bbg" width="420" height="420" rx="75"/>
<rect class="bbg" width="420" height="420" rx="75" transform="translate(420, 420)"/>
<rect class="sbg" width="300" height="300" rx="75" transform="translate(90, 450)"/>
<rect class="sbg" width="300" height="300" rx="75" transform="translate(450, 90)"/>

<path fill="#fff" transform="matrix(1.22 0 0 1.22 58.51 85.88)" d="M 221.95 51.29 c 0.15 2.17 0.15 4.34 0.15 6.53 c 0 66.73 -50.8 143.69 -143.69 143.69 v -0.04 C 50.97 201.51 24.1 193.65 1 178.83 c 3.99 0.48 8 0.72 12.02 0.73 c 22.74 0.02 44.83 -7.61 62.72 -21.66 c -21.61 -0.41 -40.56 -14.5 -47.18 -35.07 c 7.57 1.46 15.37 1.16 22.8 -0.87 C 27.8 117.2 10.85 96.5 10.85 72.46 c 0 -0.22 0 -0.43 0 -0.64 c 7.02 3.91 14.88 6.08 22.92 6.32 C 11.58 63.31 4.74 33.79 18.14 10.71 c 25.64 31.55 63.47 50.73 104.08 52.76 c -4.07 -17.54 1.49 -35.92 14.61 -48.25 c 20.34 -19.12 52.33 -18.14 71.45 2.19 c 11.31 -2.23 22.15 -6.38 32.07 -12.26 c -3.77 11.69 -11.66 21.62 -22.2 27.93 c 10.01 -1.18 19.79 -3.86 29 -7.95 C 240.37 35.29 231.83 44.14 221.95 51.29 z" stroke-linecap="round" />
<path fill="#fff" transform="matrix(1.22 0 0 1.22 477.72 505.17)" d="M 221.95 51.29 c 0.15 2.17 0.15 4.34 0.15 6.53 c 0 66.73 -50.8 143.69 -143.69 143.69 v -0.04 C 50.97 201.51 24.1 193.65 1 178.83 c 3.99 0.48 8 0.72 12.02 0.73 c 22.74 0.02 44.83 -7.61 62.72 -21.66 c -21.61 -0.41 -40.56 -14.5 -47.18 -35.07 c 7.57 1.46 15.37 1.16 22.8 -0.87 C 27.8 117.2 10.85 96.5 10.85 72.46 c 0 -0.22 0 -0.43 0 -0.64 c 7.02 3.91 14.88 6.08 22.92 6.32 C 11.58 63.31 4.74 33.79 18.14 10.71 c 25.64 31.55 63.47 50.73 104.08 52.76 c -4.07 -17.54 1.49 -35.92 14.61 -48.25 c 20.34 -19.12 52.33 -18.14 71.45 2.19 c 11.31 -2.23 22.15 -6.38 32.07 -12.26 c -3.77 11.69 -11.66 21.62 -22.2 27.93 c 10.01 -1.18 19.79 -3.86 29 -7.95 C 240.37 35.29 231.83 44.14 221.95 51.29 z" stroke-linecap="round" />
<path fill="#fff" transform="matrix(0.87 0 0 0.87 131.12 511.76)" d="M 221.95 51.29 c 0.15 2.17 0.15 4.34 0.15 6.53 c 0 66.73 -50.8 143.69 -143.69 143.69 v -0.04 C 50.97 201.51 24.1 193.65 1 178.83 c 3.99 0.48 8 0.72 12.02 0.73 c 22.74 0.02 44.83 -7.61 62.72 -21.66 c -21.61 -0.41 -40.56 -14.5 -47.18 -35.07 c 7.57 1.46 15.37 1.16 22.8 -0.87 C 27.8 117.2 10.85 96.5 10.85 72.46 c 0 -0.22 0 -0.43 0 -0.64 c 7.02 3.91 14.88 6.08 22.92 6.32 C 11.58 63.31 4.74 33.79 18.14 10.71 c 25.64 31.55 63.47 50.73 104.08 52.76 c -4.07 -17.54 1.49 -35.92 14.61 -48.25 c 20.34 -19.12 52.33 -18.14 71.45 2.19 c 11.31 -2.23 22.15 -6.38 32.07 -12.26 c -3.77 11.69 -11.66 21.62 -22.2 27.93 c 10.01 -1.18 19.79 -3.86 29 -7.95 C 240.37 35.29 231.83 44.14 221.95 51.29 z" stroke-linecap="round" />
<path fill="#fff" transform="matrix(0.87 0 0 0.87 491.56 152.19)" d="M 221.95 51.29 c 0.15 2.17 0.15 4.34 0.15 6.53 c 0 66.73 -50.8 143.69 -143.69 143.69 v -0.04 C 50.97 201.51 24.1 193.65 1 178.83 c 3.99 0.48 8 0.72 12.02 0.73 c 22.74 0.02 44.83 -7.61 62.72 -21.66 c -21.61 -0.41 -40.56 -14.5 -47.18 -35.07 c 7.57 1.46 15.37 1.16 22.8 -0.87 C 27.8 117.2 10.85 96.5 10.85 72.46 c 0 -0.22 0 -0.43 0 -0.64 c 7.02 3.91 14.88 6.08 22.92 6.32 C 11.58 63.31 4.74 33.79 18.14 10.71 c 25.64 31.55 63.47 50.73 104.08 52.76 c -4.07 -17.54 1.49 -35.92 14.61 -48.25 c 20.34 -19.12 52.33 -18.14 71.45 2.19 c 11.31 -2.23 22.15 -6.38 32.07 -12.26 c -3.77 11.69 -11.66 21.62 -22.2 27.93 c 10.01 -1.18 19.79 -3.86 29 -7.95 C 240.37 35.29 231.83 44.14 221.95 51.29 z" stroke-linecap="round" />
</svg>